<?xml version="1.0" standalone="no"?>
<!DOCTYPE svg PUBLIC "-//W3C//DTD SVG 20010904//EN"
 "http://www.w3.org/TR/2001/REC-SVG-20010904/DTD/svg10.dtd">
<svg version="1.0" xmlns="http://www.w3.org/2000/svg"
 width="871.000000pt" height="1280.000000pt" viewBox="0 0 871.000000 1280.000000"
 preserveAspectRatio="xMidYMid meet">
<metadata>
Created by potrace 1.15, written by Peter Selinger 2001-2017
</metadata>
<g transform="translate(0.000000,1280.000000) scale(0.100000,-0.100000)"
fill="#000000" stroke="none">
<path d="M8600 12765 c-52 -54 -109 -89 -139 -87 -39 3 -135 -27 -322 -101
-203 -80 -278 -117 -330 -164 -45 -41 -69 -50 -69 -25 0 25 -7 10 -14 -31 -6
-30 -4 -37 5 -31 8 4 10 3 5 -5 -4 -6 -12 -8 -18 -5 -7 5 -9 2 -6 -8 4 -8 1
-15 -7 -15 -10 0 -10 7 1 33 21 50 18 74 -8 75 -22 1 -22 1 2 10 l25 8 -25 -2
c-14 -1 -25 -7 -25 -14 0 -6 -13 -21 -30 -34 l-30 -23 25 29 25 29 -40 -31
c-44 -33 -258 -176 -316 -211 -20 -12 -55 -42 -78 -67 -23 -25 -48 -45 -55
-45 -14 0 -196 -116 -196 -125 0 -2 41 22 91 55 94 62 141 75 130 35 -4 -17
-6 -18 -9 -2 -2 9 -10 17 -18 17 -24 0 -301 -192 -389 -270 l-40 -35 30 33
c17 18 67 61 113 94 79 58 116 93 49 46 -148 -103 -222 -176 -213 -210 2 -11
0 -15 -6 -12 -6 4 -8 -2 -4 -17 6 -20 5 -21 -4 -7 -7 11 -7 25 0 44 13 33 8
39 -19 24 -12 -6 -25 -9 -30 -6 -4 3 -21 -9 -37 -27 l-29 -32 35 30 35 30 -34
-38 c-34 -36 -48 -47 -36 -27 14 22 -10 8 -59 -36 -28 -26 -73 -58 -101 -70
-27 -13 -44 -24 -37 -24 22 0 91 40 135 78 41 35 41 35 12 3 -35 -38 -92 -74
-155 -96 -25 -9 -58 -28 -75 -43 -25 -23 -26 -23 -10 -3 11 13 34 32 50 42 17
11 25 19 18 19 -6 0 -29 -15 -50 -32 -21 -18 -50 -41 -64 -51 -21 -16 -22 -16
-1 -7 33 16 26 3 -9 -15 -16 -9 -49 -32 -72 -52 -33 -28 -32 -25 6 11 27 25
45 46 40 46 -5 0 -30 -21 -55 -47 -56 -58 -107 -157 -113 -221 l-5 -47 15 50
c14 50 14 38 -2 -60 -6 -37 -7 -38 -15 -15 -5 16 -6 7 -2 -25 3 -37 2 -46 -6
-35 -7 9 -8 40 -4 83 4 47 3 67 -5 67 -7 0 -35 -21 -64 -47 -44 -40 -46 -41
-17 -9 19 21 49 47 65 57 17 10 24 19 16 19 -8 0 -77 -62 -155 -137 -78 -76
-188 -180 -244 -231 -56 -51 -102 -98 -102 -104 0 -6 7 -5 18 3 15 13 16 12 3
-3 -7 -10 -17 -15 -22 -13 -11 7 -42 -53 -35 -70 2 -7 -1 -21 -8 -31 -11 -15
-12 -13 -8 14 3 22 0 32 -8 32 -7 0 -66 -52 -130 -115 -64 -63 -118 -115 -121
-115 -10 0 225 227 246 238 11 6 14 12 7 12 -13 0 -283 -254 -291 -275 -2 -5
4 -3 15 5 12 9 10 4 -5 -13 -27 -30 -41 -37 -20 -9 11 14 10 13 -9 -2 -23 -20
-31 -43 -10 -30 7 4 8 3 4 -5 -4 -6 -12 -9 -17 -6 -5 4 -12 -1 -15 -9 -3 -9
-12 -16 -19 -16 -7 0 -25 -9 -41 -21 l-29 -21 28 26 c15 14 25 26 21 26 -11 0
-64 -52 -64 -62 0 -5 6 -6 13 -2 7 4 9 3 4 -2 -5 -5 -12 -9 -16 -9 -8 0 -235
-242 -240 -257 -2 -7 2 -8 10 -3 8 4 -11 -18 -41 -49 -30 -31 -57 -56 -59 -56
-3 0 17 23 44 50 27 28 46 50 43 50 -9 0 -132 -129 -137 -143 -3 -7 3 -6 15 3
10 8 1 -5 -21 -28 -46 -49 -62 -57 -19 -9 21 23 17 21 -14 -8 -41 -38 -59 -71
-24 -44 14 11 13 10 -2 -9 -21 -24 -31 -29 -21 -9 4 6 -5 -1 -19 -16 -27 -29
-35 -54 -14 -41 7 4 8 3 4 -5 -4 -6 -11 -9 -16 -6 -5 3 -18 -12 -30 -34 -23
-46 -25 -55 -8 -45 7 4 8 3 4 -5 -4 -6 -12 -9 -17 -6 -5 4 -15 -9 -23 -27 -71
-161 -67 -144 -48 -194 16 -44 16 -46 -3 -60 -18 -13 -17 -14 15 -9 30 5 29 3
-10 -10 -53 -17 -60 -18 -40 -4 13 9 13 10 0 6 -8 -2 -15 -10 -15 -17 0 -7 -6
-15 -14 -18 -9 -3 -11 0 -6 8 5 9 4 11 -4 6 -6 -4 -9 -11 -6 -16 3 -4 -8 -16
-23 -25 -27 -18 -27 -18 -12 2 8 10 3 6 -12 -9 -29 -29 -38 -55 -15 -42 6 4 5
-1 -4 -10 -9 -10 -22 -18 -30 -19 -8 -2 -25 -11 -39 -21 l-25 -18 35 6 c31 5
30 4 -9 -9 -47 -15 -87 -43 -166 -114 -44 -40 -46 -41 -15 -7 19 21 61 58 93
82 60 45 70 62 14 22 -70 -49 -197 -183 -144 -152 6 4 3 -2 -7 -14 -23 -26
-34 -29 -15 -4 7 9 1 6 -14 -7 -27 -25 -37 -48 -14 -35 8 5 8 2 -2 -9 -16 -20
-26 -23 -15 -4 5 8 2 8 -9 -2 -20 -16 -23 -36 -4 -25 7 4 9 3 4 -2 -5 -5 -14
-9 -19 -9 -6 0 -13 -6 -16 -14 -3 -9 0 -11 9 -6 8 5 11 4 6 -1 -5 -5 -14 -9
-19 -9 -6 0 -13 -6 -16 -14 -3 -9 0 -11 9 -5 12 7 12 5 0 -9 -16 -20 -25 -22
-16 -4 4 6 -3 1 -15 -12 -11 -13 -19 -30 -16 -38 3 -7 0 -12 -6 -10 -6 1 -13
-4 -16 -12 -3 -9 0 -11 9 -6 8 5 11 4 6 -1 -5 -5 -13 -9 -19 -9 -5 0 -16 -15
-23 -32 -8 -18 -10 -33 -5 -33 6 0 10 -28 10 -63 0 -34 8 -93 19 -129 10 -37
15 -65 10 -63 -4 3 -14 31 -21 63 -13 56 -13 56 -18 22 -4 -19 -7 10 -7 65 -1
63 -5 101 -12 103 -6 2 -8 9 -5 15 4 7 -7 -1 -24 -17 -32 -30 -43 -54 -19 -40
7 4 9 3 4 -2 -5 -5 -14 -9 -19 -9 -6 0 -13 -6 -16 -14 -3 -9 0 -11 9 -6 8 5
11 4 6 -1 -5 -5 -14 -9 -19 -9 -6 0 -13 -6 -16 -14 -3 -9 0 -11 9 -5 12 7 12
5 0 -9 -16 -20 -26 -23 -15 -4 5 8 2 8 -9 -2 -19 -15 -23 -36 -5 -25 7 4 8 3
4 -5 -4 -6 -11 -9 -16 -6 -5 3 -16 -8 -25 -24 -18 -36 -19 -44 -2 -35 7 4 9 3
4 -2 -5 -5 -14 -9 -20 -9 -5 0 -12 -6 -15 -14 -3 -9 0 -11 9 -6 8 5 11 4 6 -1
-5 -5 -14 -9 -19 -9 -6 0 -13 -6 -16 -14 -3 -9 0 -11 9 -6 8 5 11 4 6 -1 -5
-5 -14 -9 -20 -9 -5 0 -12 -6 -15 -14 -3 -9 0 -11 9 -6 8 5 11 4 6 -1 -5 -5
-14 -9 -20 -9 -5 0 -12 -6 -15 -14 -3 -9 0 -11 9 -6 8 5 11 4 6 -1 -5 -5 -14
-9 -20 -9 -5 0 -12 -6 -15 -14 -3 -9 0 -11 8 -6 9 5 11 4 6 -4 -4 -6 -11 -9
-16 -6 -11 7 -43 -44 -36 -60 3 -8 0 -17 -6 -21 -7 -5 -8 -2 -3 6 6 9 4 11 -4
6 -7 -5 -10 -15 -7 -23 3 -8 2 -12 -3 -9 -11 7 -31 -24 -59 -93 -24 -58 -27
-75 -13 -67 10 6 -3 -71 -14 -82 -4 -4 -4 11 -1 33 4 30 3 34 -3 15 -14 -39
-13 -72 2 -64 17 10 2 -5 -53 -51 l-45 -38 42 42 c23 22 39 41 35 41 -9 0 -92
-83 -92 -93 0 -4 5 -5 10 -2 16 10 11 -1 -7 -16 -14 -12 -16 -12 -9 1 4 8 -3
3 -17 -11 -13 -15 -39 -62 -57 -105 -17 -44 -38 -92 -46 -108 -16 -34 -18 -58
-3 -36 9 13 10 13 6 0 -2 -8 -10 -15 -17 -15 -7 0 -15 -6 -18 -14 -3 -8 0 -11
7 -7 6 4 11 5 11 2 0 -3 -21 -20 -47 -37 -27 -18 -79 -62 -118 -98 -38 -36
-61 -56 -51 -43 11 12 15 22 10 22 -13 0 -36 -39 -29 -50 3 -5 0 -12 -6 -16
-8 -5 -9 -3 -4 7 5 8 -1 5 -13 -5 -26 -23 -30 -44 -4 -25 14 11 13 10 -2 -9
-21 -24 -32 -29 -20 -9 5 8 2 8 -9 -2 -19 -15 -23 -36 -5 -25 7 4 8 3 4 -5 -4
-6 -11 -9 -16 -6 -4 3 -26 -25 -47 -62 -48 -83 -54 -97 -63 -148 -4 -22 -11
-49 -15 -59 -6 -15 -5 -17 5 -11 9 5 11 4 6 -4 -4 -6 -11 -9 -16 -6 -11 7 -62
-85 -56 -102 3 -7 0 -12 -6 -10 -6 1 -13 -4 -16 -12 -3 -9 0 -11 9 -6 8 5 11
4 6 -1 -5 -5 -14 -9 -20 -9 -5 0 -12 -6 -15 -14 -3 -9 0 -11 9 -6 8 5 11 4 6
-1 -5 -5 -14 -9 -20 -9 -5 0 -12 -6 -15 -14 -3 -9 0 -11 8 -6 9 5 11 4 6 -4
-4 -6 -12 -9 -17 -5 -12 7 -49 -76 -55 -124 l-4 -37 10 40 c6 22 15 44 21 50
7 7 7 2 1 -15 -5 -14 -15 -62 -22 -106 -10 -70 -15 -81 -30 -77 -21 6 -65 -50
-56 -73 3 -8 2 -12 -4 -9 -10 6 -45 -54 -36 -63 3 -3 6 -1 6 4 0 6 7 19 15 30
12 15 11 10 -2 -24 -10 -27 -19 -38 -24 -31 -9 16 -42 -59 -34 -78 2 -8 1 -12
-4 -8 -5 3 -21 -20 -35 -51 -29 -64 -30 -68 -14 -58 7 4 8 3 4 -5 -4 -6 -11
-9 -16 -6 -5 3 -16 -11 -25 -31 -17 -42 -20 -66 -4 -44 9 12 10 11 4 -5 -11
-35 -15 -222 -5 -247 7 -17 8 -10 5 32 l-5 55 14 -60 c17 -68 19 -89 6 -60 -8
18 -9 18 -10 -5 -2 -35 -30 54 -30 96 0 38 -22 69 -43 61 -9 -3 -28 -29 -42
-56 -27 -55 -30 -65 -15 -56 6 3 7 -1 4 -9 -3 -9 -10 -14 -14 -11 -4 3 -11 -2
-14 -11 -9 -23 -7 -36 3 -30 5 4 7 -3 4 -15 -4 -13 -8 -17 -13 -9 -8 13 -20
-11 -19 -38 0 -14 2 -13 9 3 l9 20 0 -20 c0 -11 -4 -27 -9 -35 -9 -13 -10 -13
-10 0 0 13 -1 13 -10 0 -5 -8 -9 -24 -9 -35 l0 -20 9 20 c6 13 7 5 3 -25 -3
-25 0 -62 5 -83 6 -21 6 -35 1 -32 -5 4 -9 12 -9 20 0 8 -5 17 -12 21 -7 4 -8
3 -4 -4 5 -8 0 -12 -12 -12 -20 0 -51 -54 -38 -67 3 -3 6 1 6 10 0 9 5 19 12
23 6 4 9 3 6 -2 -3 -5 -9 -34 -12 -63 -7 -55 -16 -80 -16 -45 -1 10 -10 -3
-22 -30 -15 -34 -18 -51 -11 -53 7 -3 9 -11 6 -19 -4 -11 -8 -12 -13 -4 -4 6
-18 -15 -34 -51 -15 -34 -24 -64 -21 -67 3 -3 5 -1 5 4 0 6 7 19 15 30 12 16
12 12 -1 -21 -11 -28 -15 -58 -11 -100 2 -33 3 -54 0 -47 -3 6 -9 9 -14 6 -6
-3 -5 -12 3 -22 7 -10 0 -6 -15 7 -25 22 -78 33 -93 19 -3 -4 -1 -17 6 -30 11
-22 10 -22 -4 -4 -9 11 -16 24 -16 30 0 5 -2 7 -5 4 -3 -3 9 -36 27 -74 33
-68 33 -72 38 -246 3 -97 8 -179 11 -182 5 -5 2 223 -4 316 -1 21 1 34 4 30 4
-4 9 -81 12 -172 3 -131 9 -180 26 -240 35 -117 35 -117 21 -100 -9 13 -11 12
-8 -3 2 -10 7 -17 12 -17 10 2 26 -20 26 -35 0 -5 -5 -3 -10 5 -15 23 -12 -3
6 -46 34 -83 66 -143 87 -161 21 -18 21 -18 7 2 -12 17 -12 18 0 7 8 -7 15
-20 15 -30 0 -9 5 -17 12 -17 6 0 15 -4 20 -9 5 -5 2 -6 -6 -1 -9 5 -12 3 -9
-6 3 -8 11 -13 17 -11 9 2 9 -3 1 -17 -10 -20 3 -41 17 -27 9 8 34 -15 27 -25
-3 -5 -1 -9 4 -9 6 0 13 -8 17 -17 4 -13 -2 -10 -22 8 -15 15 -47 38 -70 52
-23 15 -45 32 -49 39 -5 7 5 3 20 -10 16 -12 34 -22 40 -22 6 0 -2 9 -19 19
-16 10 -50 39 -75 65 -24 25 -51 46 -60 45 -9 0 -7 -3 6 -9 12 -5 26 -15 30
-22 6 -11 5 -11 -8 0 -22 17 -62 9 -66 -14 -2 -14 -1 -16 6 -6 7 11 12 5 21
-20 10 -30 9 -31 -4 -14 -8 11 -15 16 -15 12 0 -16 29 -62 54 -85 19 -18 23
-27 14 -33 -10 -6 -10 -8 0 -8 10 0 10 -3 -1 -15 -11 -10 -14 -27 -10 -57 8
-60 16 -72 78 -118 48 -36 88 -76 55 -55 -9 6 -11 0 -6 -21 4 -18 -3 -61 -19
-114 -29 -98 -29 -104 -13 -94 7 4 3 -3 -9 -15 -13 -12 -23 -28 -23 -36 0 -12
-25 -15 -142 -16 -79 0 -163 -4 -188 -8 -25 -4 42 -6 150 -5 l195 2 -185 -8
c-270 -12 -447 -45 -474 -89 -4 -6 -12 -11 -18 -11 -20 0 43 42 90 61 26 10
40 18 31 19 -52 1 -169 -90 -156 -123 3 -7 6 -5 6 5 1 9 4 19 9 21 4 3 7 -17
7 -44 0 -42 -2 -47 -12 -32 -7 9 -13 12 -13 6 0 -12 76 -83 89 -83 4 0 8 -14
9 -32 1 -23 -2 -28 -8 -18 -8 13 -10 13 -10 -1 0 -17 32 -50 67 -68 14 -7 23
-23 26 -44 l4 -32 1 36 c2 32 -2 38 -28 49 -16 7 -35 18 -41 26 -6 8 9 3 34
-11 l45 -26 7 -92 c3 -51 2 -126 -3 -167 -8 -66 -10 -69 -12 -30 l-3 45 -7
-50 c-5 -27 -8 -63 -8 -80 1 -29 1 -29 8 5 7 32 7 33 9 7 1 -36 -34 -179 -60
-243 -17 -43 -19 -31 -4 23 3 10 0 7 -6 -7 -10 -21 -71 -150 -88 -185 -2 -5 4
-3 15 5 17 14 18 14 6 -2 -8 -10 -19 -16 -24 -15 -6 1 -13 -4 -16 -12 -3 -9 0
-11 9 -6 8 5 11 4 6 -1 -5 -5 -14 -9 -20 -9 -5 0 -12 -6 -15 -14 -3 -9 0 -11
9 -6 8 5 5 -1 -5 -13 -22 -25 -35 -30 -15 -6 7 8 -52 -49 -132 -128 -94 -95
-186 -175 -267 -232 -67 -49 -122 -90 -122 -93 0 -14 225 156 345 260 81 71
83 73 20 12 -90 -85 -214 -182 -387 -302 -76 -53 -169 -122 -208 -154 -38 -33
-73 -59 -77 -59 -5 0 -1 5 7 10 8 5 10 10 4 10 -6 0 -21 -12 -35 -27 -18 -20
-19 -24 -4 -13 19 14 19 14 6 -3 -8 -9 -16 -15 -19 -12 -7 6 -42 -25 -42 -37
0 -5 6 -6 12 -2 7 4 0 -7 -16 -24 -17 -18 -32 -32 -35 -32 -2 0 6 11 19 25 13
14 20 25 16 25 -13 0 -55 -55 -51 -67 2 -6 -4 -17 -13 -25 -16 -12 -16 -11 -2
7 15 20 14 20 -8 1 -23 -20 -31 -42 -9 -30 8 5 8 2 -2 -9 -16 -20 -25 -23 -15
-4 4 6 -2 3 -14 -7 -26 -23 -30 -45 -4 -25 15 13 16 12 3 -3 -7 -10 -17 -15
-22 -13 -4 3 -13 -3 -18 -14 -14 -26 -14 -34 1 -25 7 4 8 3 4 -5 -4 -6 -11 -9
-16 -6 -5 3 -14 -3 -19 -14 -14 -26 -14 -34 1 -25 7 4 8 3 4 -5 -4 -6 -11 -9
-16 -6 -5 3 -21 -17 -35 -44 -28 -57 -30 -65 -12 -55 6 4 2 -2 -9 -14 -21 -20
-22 -29 -22 -228 1 -192 2 -212 23 -263 13 -31 28 -56 33 -56 6 0 14 -4 19 -9
5 -5 3 -6 -5 -2 -6 4 -12 2 -12 -4 0 -17 31 -60 40 -55 5 3 12 0 16 -6 4 -8 3
-9 -4 -5 -21 13 -13 -10 10 -30 22 -19 23 -19 8 1 -15 20 -14 20 8 1 23 -20
30 -32 12 -21 -5 3 -10 2 -10 -3 0 -23 165 -152 194 -152 6 0 -12 13 -39 29
-28 16 -57 36 -64 45 -8 9 10 1 38 -18 29 -20 82 -45 118 -56 64 -20 89 -20
1402 -20 832 0 1362 4 1405 10 90 13 122 30 209 108 l72 65 -60 -59 c-33 -33
-73 -70 -90 -82 -16 -12 -25 -22 -18 -22 14 0 183 158 183 172 0 5 -6 6 -12 2
-8 -4 -10 -3 -5 2 5 5 14 9 19 9 6 0 13 6 16 14 3 9 0 11 -8 6 -9 -5 -11 -4
-6 4 4 6 11 9 16 6 21 -13 91 164 109 276 15 87 14 150 -3 234 -23 116 -77
252 -96 240 -5 -3 -12 0 -16 6 -4 8 -3 9 4 5 15 -9 15 -1 1 25 -5 11 -14 17
-19 14 -5 -3 -12 0 -16 6 -5 8 -3 9 6 4 8 -5 11 -3 8 6 -3 8 -10 14 -16 14 -6
0 -17 7 -24 15 -11 12 -11 12 5 1 28 -21 20 3 -10 30 -21 18 -24 19 -13 4 11
-15 8 -14 -13 4 -28 25 -38 43 -12 21 8 -7 15 -8 15 -3 0 20 -168 171 -343
308 -172 135 -208 160 -193 136 11 -17 0 -13 -15 6 -12 15 -12 16 1 8 13 -8
13 -7 1 8 -14 18 -36 24 -26 7 10 -16 -1 -11 -16 7 -12 14 -12 16 1 9 8 -4 -1
5 -20 21 -137 111 -219 184 -281 251 -40 42 -69 71 -65 65 10 -19 1 -16 -15 4
-10 11 -10 14 -1 9 18 -11 15 9 -5 25 -11 10 -14 10 -9 2 11 -19 1 -16 -15 4
-10 11 -10 14 -2 9 19 -11 16 9 -4 25 -14 12 -16 12 -8 0 5 -10 4 -12 -4 -7
-6 4 -9 11 -6 16 8 13 -14 52 -25 45 -5 -3 -12 0 -16 6 -4 8 -3 9 4 5 15 -9
15 -1 1 25 -5 11 -13 18 -17 15 -4 -2 -8 6 -9 17 -1 12 -13 55 -28 96 -14 41
-33 110 -41 155 -16 95 -38 388 -32 446 3 33 1 39 -11 35 -25 -10 -5 6 31 23
30 15 33 21 34 62 0 42 3 46 35 56 22 8 37 21 43 38 8 22 5 32 -21 63 -31 39
-97 83 -123 82 -8 0 8 -10 35 -23 28 -12 57 -31 65 -42 12 -15 10 -15 -13 3
-16 12 -51 29 -78 38 -41 14 -47 19 -35 28 8 7 17 28 21 47 4 26 3 31 -4 20
-6 -8 -11 -26 -12 -40 0 -14 -3 -19 -6 -12 -3 8 2 38 12 68 18 58 29 72 20 27
-3 -16 19 42 48 127 68 200 68 200 209 72 67 -61 115 -92 140 -92 7 0 -6 9
-28 19 -23 10 -44 23 -47 28 -4 6 15 -1 41 -14 40 -21 58 -24 119 -21 47 2 77
9 90 19 10 9 23 15 29 12 6 -2 14 3 17 11 5 13 -5 15 -70 11 -94 -6 -135 4
-199 50 -64 45 -52 46 16 0 29 -19 59 -35 69 -35 9 0 -2 9 -24 19 -48 21 -107
70 -100 81 6 9 -20 21 -29 13 -3 -4 0 -13 6 -22 7 -9 1 -6 -12 5 -14 12 -35
25 -48 29 -12 3 -19 11 -16 17 4 6 9 6 13 1 5 -8 33 -22 46 -23 16 -1 2 16
-17 22 -22 6 -22 6 -2 7 12 1 27 -6 34 -14 15 -17 62 -31 151 -44 60 -9 107
-5 306 25 18 3 47 17 65 32 29 23 31 23 13 3 -11 -13 -33 -30 -50 -37 -18 -8
-23 -13 -13 -14 19 0 98 66 98 82 0 5 -5 6 -10 3 -16 -10 -11 1 7 16 14 12 16
12 9 -1 -4 -8 2 -4 13 9 23 25 28 47 9 35 -7 -5 -8 -3 -4 5 5 7 11 10 14 7 7
-7 32 13 32 26 0 6 -8 4 -17 -3 -15 -11 -14 -10 1 9 21 24 32 29 20 10 -5 -9
-2 -9 9 1 20 16 23 36 5 25 -8 -4 -10 -3 -5 2 5 5 14 9 20 9 7 0 13 14 14 30
2 28 1 29 -6 5 l-8 -25 -4 25 c-3 17 -11 26 -26 28 -13 2 -23 7 -23 12 0 6 10
6 25 0 23 -9 24 -8 13 10 -7 10 -17 16 -23 13 -5 -3 4 9 22 27 30 32 36 33
131 41 147 11 218 34 293 96 28 22 30 23 14 4 -11 -13 -42 -36 -70 -52 -27
-16 -45 -29 -39 -29 18 0 99 56 125 87 14 17 36 57 49 89 13 33 27 63 32 68 4
6 8 16 8 23 0 8 9 33 20 55 21 44 27 73 9 48 -9 -13 -10 -13 -6 0 2 8 10 15
17 15 7 0 15 6 18 14 3 9 0 11 -8 6 -9 -5 -11 -4 -6 4 4 6 11 9 16 6 11 -7 40
40 39 62 0 14 -2 13 -9 -4 -12 -28 -20 -30 -13 -3 12 45 -51 10 -213 -119 -11
-9 -3 1 19 22 22 20 36 37 31 37 -16 0 92 102 128 121 20 10 65 44 100 76 35
31 50 42 33 24 -16 -19 -52 -51 -78 -72 -27 -22 -44 -39 -38 -39 14 0 161 139
161 152 0 5 -5 6 -12 2 -7 -4 -8 -3 -4 5 4 6 12 9 17 5 5 -3 25 28 44 70 38
81 41 91 23 80 -7 -4 -8 -3 -4 5 4 6 11 9 16 6 14 -9 49 67 90 195 44 135 75
206 93 213 9 4 9 6 0 6 -6 1 -19 -9 -27 -21 -9 -12 -16 -18 -16 -12 0 6 8 19
19 28 16 14 31 16 92 11 68 -6 79 -5 129 20 30 15 75 46 100 69 l45 41 -35
-39 c-19 -21 -48 -47 -65 -57 -16 -10 -23 -19 -15 -19 15 0 130 108 130 123 0
4 -6 5 -13 1 -6 -4 -3 2 7 14 23 26 34 29 15 5 -7 -10 -1 -7 14 6 30 27 38 52
10 30 -10 -7 -7 -1 6 14 27 30 41 37 20 10 -11 -15 -10 -14 9 1 23 20 31 43
10 30 -7 -5 -8 -3 -4 5 5 7 11 10 14 7 7 -7 32 13 32 26 0 6 -8 4 -17 -3 -15
-11 -14 -10 1 9 21 24 31 29 20 10 -4 -7 24 16 62 51 93 86 111 105 98 97 -26
-14 -21 24 7 50 31 30 40 55 12 33 -16 -11 -16 -11 -5 1 7 8 18 15 24 15 6 0
13 6 16 14 3 9 0 11 -9 6 -8 -5 -7 0 3 10 16 17 20 16 103 -19 48 -19 114 -41
148 -47 55 -10 71 -9 141 10 43 12 81 19 84 17 9 -10 62 35 56 47 -4 7 -4 9 1
5 9 -9 35 9 35 24 0 6 -8 4 -17 -3 -16 -11 -16 -11 -5 1 7 8 18 15 24 15 6 0
13 6 16 14 3 9 0 11 -9 6 -8 -5 -11 -4 -6 1 5 5 14 9 19 9 17 0 20 19 5 39
-13 18 -16 17 -66 -12 -30 -17 -47 -32 -39 -34 25 -9 -67 -28 -138 -28 -64 0
-151 21 -199 47 -9 6 27 9 92 9 168 -1 254 20 351 86 23 16 42 27 42 24 0 -3
-24 -21 -52 -41 -29 -19 -49 -35 -45 -35 16 0 123 79 162 119 39 41 40 56 1
24 -21 -18 -21 -18 -3 3 16 20 30 21 245 27 271 8 380 24 516 77 115 45 187
90 265 164 30 28 50 44 46 36 -6 -10 -1 -8 13 4 26 23 30 45 5 25 -16 -13 -17
-12 -4 3 7 10 17 15 22 13 4 -3 15 8 24 24 18 36 19 45 3 35 -7 -4 -8 -3 -4 5
4 6 11 9 15 7 9 -6 161 131 161 145 0 6 -6 7 -12 3 -7 -4 -2 5 11 19 14 15 27
27 29 27 3 0 -3 -9 -13 -20 -10 -11 -15 -20 -11 -20 9 0 55 53 56 64 0 5 -8 2
-17 -5 -10 -7 -7 -1 6 14 27 30 41 37 20 10 -11 -15 -10 -14 9 1 23 20 31 42
10 30 -9 -5 -9 -2 1 9 16 20 26 23 15 5 -5 -9 -2 -9 9 1 19 15 23 36 5 25 -7
-4 -8 -3 -4 5 4 6 11 9 16 6 11 -7 90 146 90 172 -1 10 -10 -4 -20 -31 -11
-27 -24 -54 -31 -60 -6 -6 -4 3 4 19 54 108 70 352 29 455 -27 67 -27 76 -2
30 23 -42 27 -26 4 19 -8 17 -19 29 -24 26 -5 -3 -12 0 -16 6 -4 8 -3 9 4 5
21 -13 13 10 -10 30 -22 19 -23 19 -8 -1 11 -15 7 -14 -13 4 -28 25 -38 43
-12 21 22 -18 19 4 -3 23 -22 20 -36 22 -26 5 4 -7 -2 -4 -14 6 -26 23 -30 34
-4 15 16 -13 16 -12 3 4 -16 20 -102 67 -123 67 -7 0 11 -11 40 -25 28 -13 52
-27 52 -30 0 -3 -18 4 -39 15 -22 10 -57 22 -80 26 -57 9 -151 -4 -158 -22 -3
-8 -3 -17 -1 -20 3 -2 44 -11 92 -19 95 -15 152 -42 201 -96 29 -32 29 -32
-12 3 -45 40 -94 68 -115 68 -7 -1 7 -11 32 -23 25 -12 65 -42 89 -67 25 -25
41 -39 36 -31 -5 10 -4 12 4 7 6 -4 9 -12 6 -17 -8 -11 9 -41 21 -39 5 1 15
-18 22 -42 17 -53 9 -223 -13 -288 -8 -25 -12 -31 -9 -15 15 79 23 155 22 210
-1 48 -2 40 -9 -40 -11 -132 -24 -183 -73 -285 -22 -47 -41 -90 -41 -97 0 -7
-7 -18 -15 -25 -12 -11 -12 -11 -1 5 31 40 0 12 -59 -55 l-63 -73 59 55 59 55
-65 -68 c-35 -37 -69 -67 -74 -67 -5 0 -3 6 5 13 13 10 14 21 3 77 l-13 65 4
-70 4 -70 -14 85 c-9 47 -22 103 -30 125 -14 36 -14 38 0 21 19 -25 19 -13 0
25 -9 16 -20 27 -25 24 -5 -3 -12 0 -16 6 -5 8 -3 9 6 4 8 -5 11 -3 8 6 -3 8
-11 13 -17 11 -7 -1 -9 3 -6 9 12 18 -130 149 -162 149 -4 0 15 -15 42 -34 28
-19 64 -49 80 -67 20 -22 13 -18 -22 13 -97 85 -198 116 -269 82 -21 -10 -42
-19 -46 -20 -5 -1 -11 -2 -15 -3 -5 -1 -1 -6 7 -11 8 -5 42 -10 76 -10 80 0
151 -22 194 -61 19 -17 27 -26 18 -19 -12 8 -18 9 -18 2 0 -11 19 -27 32 -27
3 0 10 -4 15 -9 5 -5 3 -6 -4 -2 -16 9 -17 11 8 -53 29 -79 35 -163 15 -241
-20 -77 -38 -108 -73 -121 -14 -5 -23 -12 -20 -16 3 -3 23 4 44 17 23 13 32
15 23 6 -19 -20 -191 -91 -268 -110 -115 -30 -261 -47 -442 -50 -160 -3 -167
-2 -50 3 l135 7 -127 2 c-119 2 -128 3 -128 21 0 11 -4 22 -9 25 -4 3 -7 -7
-5 -22 2 -17 1 -19 -2 -7 -4 11 -13 28 -21 37 -14 16 -11 19 40 41 30 14 74
42 98 62 42 36 42 35 -4 -8 -26 -25 -67 -53 -92 -62 -24 -10 -42 -21 -39 -26
2 -4 29 6 60 24 101 60 154 125 154 189 0 20 5 40 10 43 6 3 10 11 10 17 0 6
-7 5 -17 -3 -10 -7 -7 -1 6 14 27 30 41 37 20 10 -11 -15 -10 -14 9 1 23 20
31 43 10 30 -7 -4 -8 -3 -4 5 4 6 11 9 16 6 15 -9 60 105 60 151 0 60 -16 91
-52 98 -17 3 -35 3 -42 -1 -6 -3 0 6 13 20 27 30 41 37 20 10 -13 -16 -12 -17
4 -4 10 8 16 20 13 27 -3 7 0 16 6 20 7 5 8 2 3 -6 -5 -8 -4 -11 3 -6 22 13
72 114 72 144 0 36 -52 102 -79 101 -13 0 -13 -2 -1 -6 21 -8 60 -44 60 -56 0
-5 -9 2 -21 17 -34 43 -49 34 -51 -31 l-1 -58 -7 60 -7 60 -1 -57 c-1 -31 -11
-77 -22 -103 -23 -55 -24 -58 -7 -50 6 4 -3 -7 -21 -24 -27 -26 -40 -31 -83
-31 -67 0 -141 36 -199 96 -25 26 -39 43 -31 39 11 -6 13 -4 8 9 -4 10 -7 20
-7 22 0 2 -8 4 -17 4 -10 1 4 10 31 20 27 11 63 32 80 47 l31 28 -29 -32 c-15
-17 -41 -37 -57 -44 -17 -6 -28 -14 -25 -16 8 -8 61 25 93 59 41 44 175 313
170 341 -4 19 -4 19 -6 -4 0 -14 -8 -34 -17 -45 -15 -18 -15 -18 -5 3 13 26
14 63 2 63 -5 0 -29 -11 -54 -25 -25 -14 -67 -28 -94 -32 -86 -10 -249 51
-222 83 12 14 11 15 -42 19 -8 0 -29 11 -45 23 l-29 22 38 -15 c75 -30 223
-65 278 -65 65 0 142 21 173 47 12 10 10 6 -5 -9 -26 -24 -28 -38 -7 -38 5 0
7 4 4 8 -3 5 10 24 29 42 19 19 35 40 35 47 0 7 12 13 28 13 24 1 111 39 87
39 -5 0 -21 -6 -35 -14 -14 -8 -37 -14 -51 -15 -15 0 -33 -8 -40 -18 -13 -15
-13 -15 -3 3 6 11 27 23 45 26 19 4 56 16 82 28 26 12 53 20 60 18 7 -2 25 5
40 16 22 15 26 22 15 28 -9 6 -7 9 10 9 12 0 22 5 22 11 0 5 -5 7 -12 3 -7 -4
-8 -3 -4 5 4 6 11 9 16 6 14 -9 40 50 39 87 -1 18 -5 44 -10 58 -5 17 -7 6 -4
-35 l4 -60 -10 55 c-13 66 -20 75 -48 61 -12 -7 -21 -9 -21 -7 0 3 12 12 28
20 15 8 22 15 15 16 -26 0 -64 -46 -74 -90 -5 -25 -12 -53 -15 -64 -5 -14 -3
-16 7 -11 8 5 11 4 6 -1 -5 -5 -14 -9 -20 -9 -7 0 -12 -7 -12 -15 0 -35 -119
-38 -161 -4 -18 14 -18 15 3 5 12 -6 28 -11 35 -11 7 1 -5 10 -26 20 -46 23
-50 24 -40 8 4 -7 -2 -4 -14 6 -26 22 -26 23 -9 23 54 1 129 28 166 59 22 20
41 40 41 45 0 6 -4 7 -10 4 -16 -10 -11 1 7 16 14 12 16 12 9 -1 -4 -8 2 -4
14 9 11 13 18 31 16 38 -3 8 -1 11 4 8 6 -4 19 14 30 38 11 25 26 48 33 51 6
4 1 4 -12 2 -15 -3 -20 -1 -14 5 6 6 36 4 84 -7 49 -11 121 -17 214 -17 132
-1 146 1 232 31 51 17 98 29 105 27 7 -3 24 5 38 16 l25 21 -28 -17 c-16 -9
-31 -14 -34 -12 -6 7 53 38 66 35 13 -4 121 80 121 94 0 7 -14 -3 -32 -21 -17
-17 -45 -42 -62 -53 -17 -12 -4 3 28 33 33 30 63 54 68 54 13 0 40 44 33 55
-4 6 -1 9 6 8 6 -2 14 3 17 11 3 9 0 11 -8 6 -9 -5 -11 -4 -6 4 4 6 11 9 16 6
5 -3 16 8 25 24 18 36 19 44 3 35 -8 -4 -10 -3 -5 2 5 5 14 9 20 9 7 0 12 10
11 22 0 12 3 20 7 17 13 -7 41 55 36 79 -4 19 -4 19 -6 -4 0 -14 -8 -34 -17
-45 -15 -18 -15 -18 -5 3 30 61 -11 92 -54 41 -25 -30 -34 -55 -15 -43 16 10
11 -1 -7 -16 -15 -12 -16 -12 -8 1 8 13 7 13 -8 1 -20 -16 -23 -36 -4 -25 7 4
9 3 4 -2 -5 -5 -12 -9 -16 -9 -4 0 -22 -17 -40 -37 -40 -46 -82 -72 -175 -110
-39 -16 -57 -26 -41 -23 57 12 155 64 207 111 l53 48 -45 -47 c-80 -86 -240
-146 -385 -147 -33 0 -96 7 -140 15 -90 17 -219 54 -213 61 3 2 24 -3 48 -11
23 -8 48 -15 54 -14 6 0 -14 9 -43 20 -30 10 -64 16 -74 13 -13 -4 -17 -2 -13
5 4 6 14 11 22 11 9 0 30 11 47 24 30 22 42 24 202 29 191 5 290 25 407 81 36
17 64 27 61 22 -3 -4 -33 -22 -67 -38 -33 -15 -50 -26 -36 -22 103 27 190 111
190 184 0 24 -4 30 -22 30 -18 0 -20 2 -8 10 12 7 10 9 -7 7 -12 0 -21 -6 -20
-11 1 -6 -5 -10 -13 -11 -8 0 -20 -15 -26 -34 -6 -19 -24 -46 -40 -59 l-29
-25 40 22 c36 19 38 20 17 2 -50 -43 -130 -64 -247 -64 -94 -1 -278 23 -292
37 -3 2 2 17 11 33 8 15 15 24 16 20 0 -5 -5 -17 -10 -28 -6 -10 -7 -19 -3
-19 4 0 19 28 33 63 l25 62 50 6 50 6 -52 1 c-40 2 -54 -2 -62 -15 -6 -10 -11
-13 -11 -7 0 21 24 31 85 37 79 7 186 49 260 104 58 42 32 13 -30 -35 -17 -13
-21 -19 -10 -14 65 32 161 152 120 152 -8 0 -11 -7 -8 -19 3 -10 0 -22 -5 -25
-6 -3 -8 2 -5 12 4 15 -2 19 -30 20 -27 1 -41 -6 -68 -34 -57 -60 -102 -78
-203 -81 -49 -1 -98 -5 -110 -8 -11 -3 1 5 28 19 27 13 67 43 90 65 l41 40
120 7 c197 11 302 46 421 139 57 45 58 45 14 5 -58 -53 -119 -89 -200 -118
-40 -14 -52 -21 -30 -18 63 11 175 73 239 135 33 32 61 65 60 72 0 15 -96 100
-120 107 -8 3 4 -9 26 -25 22 -16 47 -38 55 -49 8 -10 -3 -4 -25 14 -22 17
-51 41 -65 52 -23 18 -24 19 -4 20 41 0 147 43 192 78 28 20 39 26 27 12 -11
-12 -42 -35 -70 -51 -53 -30 -55 -40 -4 -13 36 18 109 83 109 96 0 5 -6 6 -12
2 -8 -4 -10 -3 -5 2 5 5 14 9 19 9 6 0 13 6 16 14 3 9 0 11 -8 6 -9 -5 -11 -4
-6 4 4 6 11 9 16 6 10 -6 40 58 39 84 0 9 -7 -3 -16 -27 -21 -59 -25 -49 -7
18 8 30 15 68 15 85 2 27 3 26 9 -10 l7 -40 1 35 c2 34 -9 63 -22 61 -3 -1
-14 -1 -23 0 -16 0 -15 2 2 10 l20 9 -20 -3 c-11 -1 -20 -9 -20 -17 -1 -8 -5
-14 -11 -13 -5 1 -8 -15 -6 -36 2 -20 -3 -52 -12 -71 -9 -19 -13 -26 -10 -15
3 11 8 40 10 65 l3 45 -8 -46 c-5 -25 -16 -60 -25 -77 -19 -37 -20 -46 -4 -36
7 4 8 3 4 -5 -4 -6 -11 -9 -15 -6 -9 5 -58 -43 -53 -53 5 -10 -57 -31 -92 -31
-44 -1 -138 27 -166 51 -14 11 -18 16 -10 12 8 -5 -16 23 -55 61 -38 37 -73
68 -77 67 -3 -1 -12 6 -20 16 -12 15 -11 16 5 3 19 -15 24 -2 5 17 -9 9 -9 12
3 13 7 0 -2 7 -21 15 -21 8 -25 12 -10 9 78 -17 120 -17 144 -1 34 21 47 21
16 -1 -13 -10 -43 -20 -65 -24 l-40 -6 35 -2 c38 -1 115 43 105 60 -4 5 -1 8
6 7 6 -2 14 3 17 11 3 9 0 11 -9 6 -8 -5 -5 1 5 13 23 26 34 29 15 5 -11 -15
-10 -14 9 1 23 20 31 42 10 30 -8 -4 -10 -3 -5 2 5 5 14 9 20 9 5 0 12 6 15
14 3 9 0 11 -8 6 -9 -5 -11 -4 -6 4 4 6 11 9 16 6 10 -6 43 43 36 54 -3 4 7
19 22 32 l27 24 -24 -27 c-14 -16 -21 -28 -17 -28 20 0 53 57 54 93 1 22 5 43
8 46 4 3 5 -11 2 -31 -2 -20 0 -34 4 -32 14 9 9 62 -8 78 -8 9 -11 16 -5 16 6
0 30 16 53 36 l43 37 -42 -42 c-23 -22 -39 -41 -34 -41 19 0 88 84 123 150 42
79 44 85 26 74 -8 -4 -10 -3 -5 2 5 5 14 9 20 9 5 0 12 6 15 14 3 9 0 11 -9 6
-8 -5 -6 1 5 13 10 12 23 20 29 19 7 -1 13 8 15 21 2 12 7 22 11 22 4 0 16 7
27 15 17 14 16 14 -13 0 -49 -23 -53 -18 -6 9 23 13 66 32 95 41 29 9 59 19
67 22 10 4 11 1 6 -8 -5 -8 -4 -11 1 -6 5 5 9 14 9 19 0 6 6 13 14 16 9 3 11
0 6 -9 -4 -8 8 2 28 20 36 34 50 60 25 45 -7 -4 -2 5 11 19 14 15 27 27 29 27
3 0 -3 -9 -13 -20 -10 -11 -15 -20 -10 -20 20 0 75 97 75 133 0 23 -45 76 -55
65 -3 -3 6 -13 20 -22 17 -12 25 -25 24 -44 l-2 -27 -4 28 c-2 15 -14 32 -26
38 -18 10 -24 8 -44 -15 -25 -29 -31 -52 -10 -40 6 4 -1 -8 -18 -25 -44 -48
-76 -61 -151 -61 -81 0 -167 21 -259 65 -89 42 -113 59 -95 70 9 5 11 4 6 -3
-8 -14 3 -15 22 -3 9 5 -6 15 -45 29 -63 24 -82 22 -34 -3 17 -8 31 -18 31
-21 0 -3 -17 4 -37 17 -21 13 -67 38 -103 57 -70 36 -54 34 50 -5 262 -99 292
-107 385 -108 103 0 132 11 205 79 l45 41 -44 -47 c-24 -26 -57 -52 -73 -59
-16 -6 -27 -14 -24 -16 9 -9 52 20 104 70 49 48 68 77 40 61 -7 -4 -2 5 11 19
14 15 27 27 29 27 3 0 -3 -9 -13 -20 -10 -11 -14 -20 -9 -20 6 0 27 27 48 60
21 33 44 60 50 60 7 0 27 14 46 30 l35 30 -39 -22 c-22 -13 -54 -38 -73 -56
-29 -30 -32 -31 -22 -9 6 13 30 35 53 47 22 13 52 32 65 44 13 12 21 15 17 9
-9 -16 6 -17 22 -1 16 16 15 31 0 22 -9 -5 -9 -2 1 9 16 20 25 23 15 5 -4 -7
3 -4 15 7 13 11 20 27 18 37 -3 9 0 16 6 15 6 -1 12 7 14 18 3 17 2 18 -7 5
-8 -11 -9 -6 -4 23 4 25 3 37 -5 37 -7 0 -9 6 -6 13 4 6 -7 -3 -25 -21 -17
-19 -29 -40 -26 -47 13 -34 -109 -109 -194 -119 l-45 -6 39 10 c58 15 59 23 1
15 -27 -4 -58 -14 -67 -23 -14 -12 -33 -14 -88 -9 -38 3 -78 11 -87 17 -15 9
-12 10 14 5 41 -8 98 26 175 106 46 47 65 59 90 60 32 2 32 2 4 6 -21 3 -39
-4 -70 -27 l-41 -31 39 35 c25 23 49 36 67 36 47 0 167 29 208 49 21 11 54 32
72 48 l34 27 -24 -27 c-14 -15 -52 -41 -85 -57 -32 -17 -54 -30 -47 -30 23 0
94 42 137 82 42 39 63 75 27 47 -15 -11 -14 -10 1 9 21 24 32 29 20 10 -6 -10
-4 -10 8 0 9 7 25 34 37 61 15 37 27 50 48 56 31 7 225 193 217 207 -3 5 0 7
7 6 6 -2 14 3 17 11 3 9 0 11 -9 6 -8 -5 -6 1 5 13 10 12 23 19 27 16 5 -3 14
7 19 21 12 32 12 58 0 30 -8 -18 -9 -18 -9 -2 -1 20 -20 17 -71 -8 -64 -32
-254 -45 -370 -26 l-45 7 65 7 c71 7 279 20 322 20 15 0 25 3 23 7 -2 4 13 12
35 19 21 6 52 23 68 36 17 14 33 25 37 25 4 0 -9 -13 -30 -30 -21 -16 -35 -30
-31 -30 15 0 85 63 80 72 -3 5 0 7 8 6 7 -2 12 3 10 10 -1 6 3 11 9 10 6 -2
14 3 17 11 3 9 0 11 -8 6 -9 -5 -11 -4 -6 4 4 6 11 9 16 6 5 -3 16 8 25 26 9
17 12 28 6 25 -6 -4 -11 -3 -11 3 0 6 -20 4 -51 -5 -28 -9 -52 -14 -54 -12 -2
2 27 22 64 45 50 32 58 35 31 13 -19 -17 -29 -30 -23 -30 6 0 27 18 47 40 35
39 46 57 27 46 -5 -3 -12 1 -15 10 -3 8 -2 12 4 9 6 -3 10 1 10 9 0 10 -6 13
-17 9 -10 -3 -7 3 7 12 14 10 39 30 55 44 18 15 15 10 -7 -11 -20 -21 -34 -38
-30 -38 9 0 92 83 92 93 0 4 -6 5 -12 1 -8 -4 -10 -3 -5 2 5 5 14 9 19 9 6 0
13 6 16 14 3 9 0 11 -8 6 -9 -5 -11 -4 -6 4 4 6 11 9 16 6 9 -6 40 38 40 57
-1 7 -8 1 -16 -14 -21 -39 -26 -35 -8 7 15 37 12 55 -9 55 -9 0 -8 -3 1 -8 25
-16 -108 -73 -179 -78 -45 -2 -57 -1 -39 5 14 5 38 9 53 10 15 1 44 8 65 17
20 10 42 18 47 19 23 3 44 18 39 27 -3 5 -13 4 -22 -4 -15 -12 -16 -11 -3 4 7
10 17 15 22 13 4 -3 16 9 25 26 12 23 17 64 19 150 2 118 2 119 -21 119 -12 0
-26 -4 -29 -10 -3 -5 -11 -10 -16 -10 -6 0 -7 5 -4 10 12 19 -1 10 -35 -25z
m-1992 -2600 c94 -19 295 -19 387 0 38 8 73 11 78 6 10 -10 -79 -62 -146 -85
-82 -28 -184 -15 -272 33 -22 12 -29 19 -16 15 17 -4 21 -3 16 6 -4 6 -19 10
-32 7 -15 -3 -47 5 -77 19 -28 14 -42 22 -31 19 11 -2 53 -11 93 -20z m-907
-805 c94 -34 242 -101 247 -113 2 -4 7 -5 12 -2 4 2 47 -9 96 -26 49 -17 130
-41 179 -54 50 -13 79 -24 65 -24 -14 0 -63 11 -110 25 -114 35 -133 38 -85
16 68 -32 171 -55 212 -49 26 5 33 3 23 -3 -33 -21 -127 -4 -248 45 -32 13
-40 20 -30 27 9 7 6 8 -11 5 -25 -6 -71 11 -71 25 0 5 -4 7 -9 4 -11 -7 -91
24 -91 35 0 5 -6 6 -13 4 -6 -3 -45 11 -85 30 -41 19 -80 35 -88 35 -8 0 -14
3 -14 8 0 8 -126 7 -174 -2 -19 -4 -41 -3 -51 0 -12 5 -4 11 32 24 72 26 119
23 214 -10z m-106 -253 c81 -23 216 -76 155 -61 -14 3 -36 5 -49 5 -13 -1 -69
8 -125 20 -55 11 -141 26 -191 34 -49 7 -75 13 -56 14 19 1 63 -4 97 -10 40
-7 69 -7 80 -1 39 22 -161 26 -366 7 l-45 -4 40 14 c31 11 79 14 205 11 138
-3 180 -8 255 -29z m-69 -506 c38 -16 143 -65 234 -109 91 -43 198 -92 239
-108 73 -28 73 -28 51 -46 -55 -44 -116 -30 -275 63 -71 41 -335 229 -322 229
2 0 35 -13 73 -29z m-16 -1502 c81 -28 110 -33 195 -33 90 -1 105 2 146 25 51
29 50 29 35 -46 -5 -22 -15 -52 -22 -67 -17 -33 -18 -41 -1 -32 7 4 9 3 4 -2
-5 -5 -14 -9 -19 -9 -6 0 -13 -6 -16 -14 -3 -9 0 -11 9 -6 8 4 -8 -15 -35 -43
-63 -65 -121 -87 -231 -87 -59 0 -88 5 -110 18 -16 10 -21 15 -10 12 11 -4 29
-9 40 -12 16 -4 15 -2 -4 9 -22 12 -30 36 -10 31 14 -4 89 154 88 184 -2 25
-2 25 -9 -7 l-7 -35 -2 33 c-1 32 -1 32 -52 32 -66 0 -119 16 -155 47 l-29 25
33 -22 c18 -12 35 -20 38 -17 3 2 -12 15 -33 28 -51 32 -57 34 -48 18 5 -8 -4
-3 -18 10 -15 13 -24 27 -22 31 6 9 -44 60 -58 60 -6 0 2 -14 19 -32 16 -18 1
-8 -33 21 -35 29 -63 55 -63 57 0 2 64 -29 143 -70 78 -41 185 -90 237 -107z
m316 -344 c-11 -8 -16 -15 -11 -15 16 0 -40 -52 -77 -71 -61 -31 -119 -40
-203 -29 -42 5 -95 18 -118 28 l-42 18 117 -4 c100 -4 127 -1 190 18 40 12 91
33 113 46 45 27 60 31 31 9z m-1161 -21 c256 -38 356 -44 448 -27 l77 14 38
-30 c94 -75 194 -120 332 -150 l45 -9 -55 4 c-51 3 -49 1 8 -12 15 -3 22 -12
22 -29 0 -14 4 -25 9 -25 4 0 7 12 5 28 -4 27 -4 27 5 2 4 -14 5 -28 2 -32
-16 -17 -355 49 -530 104 -53 16 -185 57 -294 91 -131 40 -193 64 -185 70 9 5
4 7 -12 3 -14 -3 -46 1 -70 9 -65 20 -35 18 155 -11z m-110 -339 c105 -25 248
-60 319 -77 92 -22 124 -33 113 -39 -37 -21 -178 -49 -247 -49 -70 0 -80 3
-155 45 -136 76 -228 122 -273 135 -23 7 -40 15 -38 18 3 2 21 -1 40 -8 25 -8
41 -8 53 -1 15 9 14 11 -12 12 -134 6 -169 9 -174 15 -3 4 37 4 89 1 61 -4
163 -22 285 -52z m715 -156 c58 -11 121 -23 140 -28 l35 -8 -90 -44 c-89 -44
-91 -44 -197 -44 -104 0 -148 11 -117 30 7 5 10 4 6 -2 -13 -20 156 -31 213
-13 14 4 -9 5 -51 2 -42 -2 -93 -2 -113 2 l-36 7 15 30 c9 16 13 35 9 41 -5 7
-3 8 5 4 8 -5 14 0 18 13 5 18 11 21 42 16 34 -4 33 -4 -9 10 -54 18 -36 15
130 -16z m-2200 -1709 c52 -4 77 -8 55 -10 -22 -1 -32 -4 -22 -7 9 -2 17 -9
17 -15 0 -7 7 -6 18 2 9 7 5 1 -11 -13 -40 -38 -94 -49 -236 -46 -69 2 -147 3
-173 3 -27 1 -48 4 -48 8 0 19 89 69 145 81 30 7 149 6 255 -3z m-1125 -1481
c178 -15 295 -46 295 -79 0 -8 -51 -40 -65 -40 -3 0 -5 8 -5 19 0 10 -6 24
-14 30 -65 54 -672 70 -734 19 -7 -6 -12 -23 -10 -36 4 -31 -14 -39 -36 -17
-21 21 -20 31 3 54 51 51 303 73 566 50z m100 -406 c0 -249 2 -290 23 -398 44
-230 121 -416 277 -670 101 -166 191 -355 168 -355 -20 1 -36 24 -86 125 -30
61 -83 160 -119 220 -139 234 -226 439 -262 615 -42 208 -57 462 -36 638 9 82
15 102 28 102 4 0 7 -125 7 -277z m73 241 c21 -15 22 -18 16 -162 -19 -432 90
-730 376 -1032 149 -157 232 -290 278 -444 l21 -69 -84 7 c-46 3 -93 9 -104
14 -14 5 -43 53 -90 147 -37 77 -101 194 -140 259 -138 228 -207 383 -256 576
-53 211 -72 384 -67 638 2 88 8 96 50 66z m-552 -399 c23 -94 -67 -428 -164
-609 -41 -77 -64 -98 -84 -78 -11 11 -4 30 34 101 92 173 139 320 157 499 5
50 13 96 16 102 12 19 35 10 41 -15z m-323 -792 c4 -3 -16 -30 -45 -61 -58
-63 -106 -131 -162 -234 -39 -71 -44 -75 -121 -80 -44 -3 -50 -1 -53 18 -5 32
207 334 256 364 16 10 105 5 125 -7z m148 -35 c22 -6 39 -15 39 -19 0 -5 -20
-35 -44 -66 -24 -32 -63 -94 -88 -138 -56 -99 -80 -117 -158 -123 -51 -4 -60
-2 -60 13 0 31 137 252 193 313 34 35 57 39 118 20z m599 -42 c104 -27 123
-38 91 -56 -17 -9 -39 -8 -98 4 -44 10 -127 16 -202 16 l-126 1 33 29 c31 29
37 30 121 30 61 0 117 -7 181 -24z m-1500 -316 c-6 -12 -39 -51 -72 -88 -108
-118 -181 -253 -219 -402 -21 -83 -18 -272 5 -340 30 -88 73 -166 116 -211 44
-46 44 -58 3 -43 -34 12 -111 106 -146 178 -58 118 -69 222 -42 382 27 156 89
264 253 442 91 98 125 125 102 82z m2661 -152 c132 -116 237 -274 268 -403 23
-94 12 -241 -25 -336 -37 -92 -107 -173 -176 -202 -42 -18 -162 -32 -154 -19
3 6 33 13 65 17 72 8 155 54 188 103 39 59 62 137 69 234 7 116 -11 211 -61
312 -39 79 -152 235 -221 306 -40 42 -52 60 -39 60 3 0 41 -32 86 -72z m-2233
44 c9 -6 8 -25 -8 -88 -13 -49 -23 -135 -28 -229 l-7 -150 -64 -8 c-43 -5 -68
-4 -75 3 -16 16 -20 155 -6 235 13 76 45 191 60 214 5 8 30 18 57 22 26 3 50
7 53 8 3 0 11 -3 18 -7z m181 -33 c28 -6 53 -15 56 -20 3 -5 -1 -44 -10 -86
-9 -43 -18 -132 -19 -198 l-3 -120 -75 -3 -76 -3 -6 37 c-14 74 12 308 41 370
19 38 21 38 92 23z m1518 -277 c6 -4 16 -19 21 -33 18 -45 35 -219 28 -282 -8
-82 -27 -177 -35 -177 -3 0 -7 71 -7 158 -2 149 -15 239 -49 325 -5 12 -2 17
11 17 11 0 24 -4 31 -8z m216 -49 c5 -3 6 -36 2 -76 -14 -144 -70 -305 -130
-372 -26 -29 -26 -30 -20 -5 36 148 37 163 25 310 -6 79 -14 148 -16 152 -13
20 11 24 68 11 34 -8 66 -17 71 -20z"/>
</g>
</svg>
