<?xml version="1.0" standalone="no"?>
<!DOCTYPE svg PUBLIC "-//W3C//DTD SVG 20010904//EN"
 "http://www.w3.org/TR/2001/REC-SVG-20010904/DTD/svg10.dtd">
<svg version="1.0" xmlns="http://www.w3.org/2000/svg"
 width="400.000000pt" height="468.000000pt" viewBox="0 0 400.000000 468.000000"
 preserveAspectRatio="xMidYMid meet">
<metadata>
Created by potrace 1.15, written by Peter Selinger 2001-2017
</metadata>
<g transform="translate(0.000000,468.000000) scale(0.100000,-0.100000)"
fill="#000000" stroke="none">
<path d="M0 2340 l0 -2340 460 0 c300 0 460 3 460 10 0 13 -37 50 -50 50 -5 0
-10 7 -10 15 0 9 -12 18 -30 22 -17 3 -30 12 -30 20 0 7 -6 13 -12 12 -19 -3
-86 29 -108 51 -11 11 -30 20 -43 20 -14 0 -26 9 -32 22 -6 13 -20 24 -32 26
-13 2 -23 11 -23 20 -1 16 -2 16 -14 0 -24 -33 -43 -22 -51 29 -4 27 -10 42
-12 36 -6 -18 -43 -16 -43 1 0 8 -10 22 -22 30 -27 19 -24 19 22 5 87 -26 129
-35 123 -26 -3 5 4 6 18 2 22 -7 23 -7 9 10 -14 17 -13 17 7 7 12 -7 31 -12
42 -12 12 0 21 -5 21 -11 0 -8 13 -10 38 -6 30 5 34 4 17 -5 -16 -10 -9 -14
55 -29 48 -12 97 -16 134 -14 64 5 89 15 38 15 -17 0 -33 4 -36 9 -4 5 2 8 11
6 61 -12 73 -16 69 -23 -2 -4 22 -16 55 -26 32 -11 59 -23 59 -27 0 -5 6 -6
14 -3 8 3 25 -1 38 -9 13 -8 48 -18 78 -22 75 -10 110 -25 45 -20 -36 3 -41 2
-20 -3 28 -7 29 -8 10 -20 -19 -11 -19 -11 5 -13 30 -2 50 0 69 7 11 4 11 7 0
21 -12 15 -12 16 5 10 11 -4 47 -10 80 -14 34 -3 66 -9 71 -13 27 -20 124 -42
217 -50 56 -5 147 -18 201 -30 172 -36 500 -29 600 14 43 19 175 72 263 106
40 15 109 47 155 72 79 42 104 50 399 113 395 84 374 78 407 110 l28 27 123
-7 122 -6 0 2086 0 2085 -2000 0 -2000 0 0 -2340z"/>
</g>
</svg>
